<svg width="25" height="23" viewBox="0 0 25 23" fill="none" xmlns="http://www.w3.org/2000/svg">
<g clip-path="url(#clip0_1018_297)">
<path opacity="0.5" fill-rule="evenodd" clip-rule="evenodd" d="M3.29281 0C1.54639 0 0.404541 1.14688 0.404541 2.65428C0.404541 4.1284 1.51237 5.30799 3.2258 5.30799H3.25894C5.03953 5.30799 6.14765 4.1284 6.14765 2.65428C6.11436 1.14688 5.03953 0 3.29281 0ZM0.709229 7.41406H5.81476V22.7754H0.709229V7.41406ZM13.7446 9.63516C13.7446 9.63516 15.5915 7.04688 18.3457 7.04688C21.7045 7.04688 24.2234 9.2425 24.2234 13.9609V22.7688H19.1183V14.5509C19.1183 12.4859 18.3794 11.0772 16.532 11.0772C15.1215 11.0772 14.2816 12.0272 13.9125 12.9442C13.7776 13.2726 13.7443 13.7312 13.7443 14.1904V22.7688H8.63892V7.40741H13.7446V9.63516Z" fill="white"/>
</g>
<defs>
<clipPath id="clip0_1018_297">
<rect width="23.8189" height="22.7754" fill="white" transform="translate(0.404541)"/>
</clipPath>
</defs>
</svg>
