<svg width="33" height="23" viewBox="0 0 33 23" fill="none" xmlns="http://www.w3.org/2000/svg">
<g clip-path="url(#clip0_1018_298)">
<path opacity="0.5" fill-rule="evenodd" clip-rule="evenodd" d="M30.4853 1.89528C30.9823 2.39232 31.3404 3.01091 31.524 3.68943C32.5811 7.94505 32.3369 14.6662 31.5445 19.086C31.3609 19.7645 31.0028 20.3831 30.5058 20.8802C30.0088 21.3772 29.3902 21.7354 28.7118 21.919C26.228 22.5964 16.2312 22.5964 16.2312 22.5964C16.2312 22.5964 6.23443 22.5964 3.75064 21.919C3.07216 21.7354 2.45362 21.3772 1.95661 20.8802C1.4596 20.3831 1.10147 19.7645 0.917878 19.086C-0.145433 14.8489 0.146054 8.12365 0.897351 3.70996C1.08094 3.03144 1.43908 2.41285 1.93609 1.91581C2.43309 1.41876 3.05163 1.0606 3.73011 0.876994C6.2139 0.199545 16.2107 0.179016 16.2107 0.179016C16.2107 0.179016 26.2074 0.179016 28.6912 0.856465C29.3697 1.04007 29.9882 1.39823 30.4853 1.89528ZM21.3289 11.389L13.0359 16.1927V6.58527L21.3289 11.389Z" fill="white"/>
</g>
<defs>
<clipPath id="clip0_1018_298">
<rect width="32.0069" height="22.4174" fill="white" transform="translate(0.223389 0.179016)"/>
</clipPath>
</defs>
</svg>
